# xmcd
#
# Track frame offsets: 
#        150
#        14935
#        29068
#        45067
#        60997
#        73017
#        85638
#        97810
#        110731
#        124398
#
# Disc length: 1800 seconds
#
# Revision: 0
# Processed by: cddbd v1.5.2PL0 Copyright (c) Steve Scherf et al.
# Submitted via: ExactAudioCopy v0.99pb5
#
DISCID=8107060a
DTITLE=B.B. King - King of the Blues
DYEAR=1900
DGENRE=Blues
TTITLE0=I've Got A Right To Love My Baby
TTITLE1=What Way To Go
TTITLE2=Long Nights
TTITLE3=Feel Like A Million
TTITLE4=I'll Survive
TTITLE5=Good Man Gone Bad
TTITLE6=If I Lost You
TTITLE7=You're On The Top
TTITLE8=Partin' Time
TTITLE9=I'm King
EXTD=
EXTT0=
EXTT1=
EXTT2=
EXTT3=
EXTT4=
EXTT5=
EXTT6=
EXTT7=
EXTT8=
EXTT9=
PLAYORDER=
